<?xml version="1.0" encoding="UTF-8"?>
<svg id="Layer_1" data-name="Layer 1" xmlns="http://www.w3.org/2000/svg" viewBox="0 0 270 82.43">
  <defs>
    <style>
      .cls-1 {
        fill: #FFB81C;
      }

      .cls-2, .cls-3 {
        fill: #0b2642;
      }

      .cls-3 {
        font-family: BodoniModaRoman-SemiBold, 'Bodoni Moda';
        font-size: 15.03px;
        font-variation-settings: 'wght' 600, 'opsz' 11;
        font-weight: 600;
      }
    </style>
  </defs>
  <g>
    <path class="cls-1" d="M65.57,38.99c-.07,1.36-.21,4.18-1.61,7.27-1.28,2.85-3.04,4.61-3.51,5.08-1.92,1.87-3.91,2.85-5.15,3.36-1.26-.71-2.06-1.47-2.49-2.24-.14-.25-.25-.5-.32-.75h0s0-.01,0-.01c-.07-.27-.11-.54-.11-.81-.03-2.76,3.45-5.42,5.13-6.55,2.47-1.65,4.35-3.57,4.35-3.57-1.12,2.49-3.7,3.91-6.28,6.84-2.58,2.93-.27,5.11-.27,5.11,1.44-.67,2.74-1.57,3.89-2.68.58-.57,2.05-2.14,3.12-4.52,1.25-2.78,1.39-5.37,1.45-6.62,0-.13.01-.27.02-.42.67-.69,1.3-1.4,1.84-2.12,0,.07,0,.13,0,.2,0,.1,0,1.45-.04,2.43Z"/>
    <path class="cls-1" d="M58.92,31.28s-.02.04-.04.07c0,.01-.01.02-.01.03-.12.23-.33.6-.64,1.02-.04.06-.09.12-.14.18-.06.07-.12.15-.19.23-.92-.47-1.79-1.02-2.62-1.64-.87.66-1.8,1.24-2.78,1.73-1.79.89-3.68,1.46-5.67,1.7-.03.66-.04,1.32-.05,1.98,0,.38,0,1.53.04,2.33.02.5.06,1.22.18,2.09-.65.77-1.13,1.61-1.35,2.55-.51-1.95-.59-3.6-.64-4.55-.05-.98-.04-2.33-.04-2.43.01-1.51.08-2.76.15-3.66,1.48-.04,3.93-.32,6.58-1.63,1.56-.78,2.75-1.7,3.59-2.47.84.77,2.03,1.69,3.59,2.47.01,0,.02.01.04.02Z"/>
    <path class="cls-2" d="M58.87,31.38c-.05.11-.22.48-.64,1.02.31-.42.52-.79.64-1.02Z"/>
    <path class="cls-2" d="M58.87,31.38c-.05.11-.22.48-.64,1.02.31-.42.52-.79.64-1.02Z"/>
    <path class="cls-2" d="M67.44,34.86l-1.2-1.45c-.13.28-.51.94-.68,1.22-.49.8-1.09,1.58-1.77,2.35-3.78,4.23-9.97,7.86-11.8,10.29-.63.83-.9,1.64-.95,2.38-.15,1.87,1.04,3.26,1.11,3.34-.08-.06-.17-.12-.25-.18-1.91-1.42-2.77-2.83-2.92-4.18-.02-.19-.03-.38-.02-.56h0v-.02c0-.09.01-.19.02-.28,0-.05.01-.09.02-.14.01-.1.03-.2.05-.29.01-.05.02-.1.03-.15,0-.03.02-.07.03-.1.68-2.25,7.99-7.96,7.99-7.96,1.29-1,3.08-2.55,4.98-4.82.64-.8.97-1.31,1.15-1.63.04-.07.37-.67.37-.67h0l-2.05-.22,5.88-4.05v7.13Z"/>
    <path class="cls-1" d="M59.83,31.71c-.13.62-.31,1.19-.52,1.73-1.87,4.84-6.48,6.74-9.27,9.38-.94.88-1.48,1.79-1.79,2.63-.39,1.07-.39,2.02-.31,2.66.06.47.16.77.18.82-.05-.07-.1-.15-.15-.22-.02-.03-.04-.06-.06-.08-.09-.13-.18-.27-.26-.41-.05-.07-.09-.15-.13-.22-1.33-2.31-1.23-4.11-.27-5.63h0c1.19-1.88,3.67-3.35,6.37-4.89,2.77-1.58,4.35-3.11,5.23-4.2.68-.85.93-1.43.97-1.54h0Z"/>
  </g>
  <text class="cls-3" transform="translate(76.87 46.89)"><tspan x="0" y="0">ELAN PATRIMOINE</tspan></text>
</svg>
